#!OML:ASF H:\Terrain\Patient Classification 1\Walking\liu\liu.ASF
:FULLY-SPECIFIED
:DEGREES
320
root 8.93715 17.1619 14.8353 4.87881 -0.612458 -3.71267
lowerback -4.3768 0.0478681 0.199748
upperback 0.485823 -0.0453093 3.33658
thorax 2.95947 -0.0469101 3.32835
lowerneck -20.177 -4.14839 -12.0635
upperneck 22.3791 -5.33748 12.6967
head 11.2922 -1.9308 5.90972
rclavicle 9.56651e-015 6.36111e-015
rhumerus -31.8356 15.9525 -86.943
rradius 33.4788
rwrist -13.1292
rhand -25.3737 -25.8423
rfingers 7.12502
rthumb 1.15063 -55.8189
lclavicle 9.56651e-015 6.36111e-015
lhumerus -40.6533 -12.9573 94.9859
lradius 29.0639
lwrist 5.82198
lhand -14.1979 -25.3743
lfingers 7.12502
lthumb 11.9383 4.26533
rfemur -13.1611 1.59216 30.1213
rtibia 26.7845
rfoot -16.7318 2.16493
rtoes -18.7131
lfemur -31.1507 12.4082 -16.6607
ltibia 66.3686
lfoot -12.1131 12.6591
ltoes -6.3028
321
root 8.9376 17.1501 14.9712 4.86615 -0.628186 -3.65073
lowerback -4.36774 0.12223 0.145052
upperback 0.676164 0.0529399 3.28993
thorax 3.14534 -0.00118347 3.31915
lowerneck -20.5039 -4.26373 -12.038
upperneck 22.3258 -5.45602 12.6517
head 11.3522 -1.97728 5.86764
rclavicle 9.34288e-015 -4.37326e-015
rhumerus -31.039 16.5139 -86.804
rradius 34.1446
rwrist -13.7556
rhand -25.541 -25.485
rfingers 7.12502
rthumb 0.989048 -55.4624
lclavicle 9.34288e-015 -4.37326e-015
lhumerus -40.7143 -12.0039 94.3127
lradius 28.5458
lwrist 4.90627
lhand -14.2614 -26.0244
lfingers 7.12502
lthumb 11.8771 3.61876
rfemur -12.5897 1.39336 30.0788
rtibia 26.8712
rfoot -16.8851 1.90239
rtoes -17.8174
lfemur -32.0739 12.0172 -17.0062
ltibia 65.1758
lfoot -12.5014 12.8366
ltoes -5.87204
322
root 8.93871 17.1471 15.1169 4.96538 -0.691051 -3.87266
lowerback -4.44221 0.176317 0.384797
upperback 0.710095 0.106986 3.3602
thorax 3.2197 0.0287092 3.26158
lowerneck -20.4448 -4.29451 -12.2383
upperneck 22.1285 -5.46713 12.8182
head 11.2805 -1.98155 5.9566
rclavicle 9.14409e-015 -2.82274e-014
rhumerus -30.6313 17.1565 -86.6867
rradius 35.0609
rwrist -14.1973
rhand -26.5338 -24.2384
rfingers 7.12502
rthumb 0.0301978 -54.2182
lclavicle 9.14409e-015 -2.82274e-014
lhumerus -41.0825 -10.916 93.6376
lradius 28.2779
lwrist 4.40384
lhand -13.4357 -26.0098
lfingers 7.12502
lthumb 12.6732 3.58566
rfemur -12.1009 1.34809 30.3221
rtibia 26.942
rfoot -17.4102 2.07309
rtoes -17.084
lfemur -33.0493 11.628 -16.9578
ltibia 63.9279
lfoot -13.3705 12.6986
ltoes -4.02908
323
root 8.94817 17.1518 15.2754 4.93876 -0.728422 -3.59844
lowerback -4.54693 0.211445 0.180769
upperback 0.779213 0.162379 3.31835
thorax 3.34673 0.0514858 3.3391
lowerneck -20.2719 -4.34076 -12.6509
upperneck 21.9985 -5.46152 13.029
head 11.2175 -1.99518 6.10536
rclavicle -4.67144e-015 -1.63003e-014
rhumerus -30.2639 17.9678 -86.4892
rradius 35.9497
rwrist -14.9032
rhand -27.6454 -23.1279
rfingers 7.12502
rthumb -1.04345 -53.1051
lclavicle -4.67144e-015 -1.63003e-014
lhumerus -41.5883 -10.2631 93.2659
lradius 27.8738
lwrist 4.01587
lhand -12.9937 -26.085
lfingers 7.12502
lthumb 13.0993 3.4836
rfemur -11.3927 0.913509 29.9519
rtibia 26.9089
rfoot -18.249 2.5566
rtoes -16.9294
lfemur -33.6293 11.1368 -17.4332
ltibia 62.3906
lfoot -14.2157 12.6243
ltoes -6.85889
324
root 8.92613 17.1061 15.307 5.44137 -0.742733 -4.42849
lowerback -3.67065 0.375519 0.673059
upperback 0.400683 0.382234 3.60624
thorax 2.45183 0.17561 3.36071
lowerneck -20.1514 -4.41968 -12.8195
upperneck 21.9657 -5.53286 13.0408
head 11.1988 -2.04435 6.12583
rclavicle 3.37934e-015 -5.4467e-014
rhumerus -29.7898 18.3975 -86.2992
rradius 36.6186
rwrist -15.5889
rhand -28.663 -21.7748
rfingers 7.12502
rthumb -2.02626 -51.7449
lclavicle 3.37934e-015 -5.4467e-014
lhumerus -42.0058 -9.76728 92.84
lradius 27.3901
lwrist 3.59214
lhand -12.8917 -26.3929
lfingers 7.12502
lthumb 13.1976 3.16937
rfemur -11.7415 3.15421 31.1485
rtibia 26.5228
rfoot -18.6517 0.154207
rtoes -19.0633
lfemur -35.9742 10.9773 -16.6389
ltibia 61.0784
lfoot -13.0728 12.8883
ltoes -9.29716
325
root 8.91852 17.0965 15.406 5.48198 -0.767406 -4.42147
lowerback -3.14197 0.502735 0.627221
upperback 0.31509 0.574235 3.50489
thorax 2.05674 0.274556 3.28364
lowerneck -19.9058 -4.4471 -12.8532
upperneck 21.6808 -5.63016 13.2856
head 11.0706 -2.06991 6.19722
rclavicle 1.07841e-014 7.55382e-015
rhumerus -29.3101 18.3763 -86.183
rradius 37.3407
rwrist -16.0589
rhand -28.8567 -21.8697
rfingers 7.12502
rthumb -2.2133 -51.838
lclavicle 1.07841e-014 7.55382e-015
lhumerus -42.354 -9.34531 92.2355
lradius 26.8479
lwrist 3.57911
lhand -13.079 -26.7904
lfingers 7.12502
lthumb 13.017 2.78348
rfemur -11.159 4.10932 31.2364
rtibia 25.9135
rfoot -18.5938 -0.476989
rtoes -15.7526
lfemur -36.8813 10.467 -16.5978
ltibia 59.1059
lfoot -13.0701 12.6963
ltoes -5.38437
